    <svg id="svg2" viewBox="0 0 500 670" xmlns="http://www.w3.org/2000/svg">
      <ellipse
        styles="fill-rule: nonzero; paint-order: stroke; fill: rgba(216, 216, 216, 0); stroke-width: 21px; stroke: rgb(0, 106, 188);"
        cx="162.055"
        cy="409.062"
        rx="46.76"
        ry="46.76"
      ></ellipse>
      <ellipse
        styles="fill-rule: nonzero; paint-order: stroke; stroke-width: 21px; stroke: rgb(0, 106, 188); fill-opacity: 0.37; fill: none;"
        cx="338.203"
        cy="352.935"
        rx="46.76"
        ry="46.76"
      ></ellipse>
      <path
        styles="fill: rgb(0, 106, 188); fill-rule: nonzero; stroke-linejoin: round; stroke-linecap: round; paint-order: stroke; stroke-width: 0px;"
        d="M 266.463 400.735 C 267.5 407.156 252.805 413.322 248.528 408.421 C 238.915 397.405 235.533 361.94 226.123 356.21 C 206.634 344.344 180.226 337.487 156.291 325.152 C 148.001 320.88 142.255 305.08 148.604 298.249 C 167.721 277.682 181.286 259.643 202.409 244.444 C 209.14 239.601 219.207 246.126 226.75 249.569 C 240.89 256.024 248.623 274.888 263.901 277.752 C 279.179 280.616 287.939 271.899 308.738 264.941 C 314.364 263.059 322.615 276.983 317.706 280.314 C 301.634 291.219 286.352 297.497 269.025 299.53 C 254.086 301.283 238.755 288.778 224.357 293.13 C 217.062 295.335 203.122 303.97 207.31 308.365 C 220.295 321.994 240.81 323.608 246.306 335.41 C 256.399 357.085 262.479 376.067 266.463 400.735 Z"
      ></path>
      <path
        styles={"fill: rgb(0, 106, 188);"}
        d="M 280.401 252.877 C 282.655 253.423 284.324 237.686 285.086 233.55 C 285.4 231.847 257.063 233.108 248.776 225.937 C 244.477 222.217 249.177 213.275 253.461 209.539 C 260.743 203.188 281.7 207.883 282.157 205.439 C 283.142 200.171 283.744 193.11 283.329 188.455 C 283.062 185.459 243.891 183.83 234.134 188.455 C 225.484 192.555 217.434 200.58 215.979 214.224 C 214.524 227.868 217.151 232.964 233.549 240.578 C 249.947 248.192 275.591 251.712 280.401 252.877 Z"
      ></path>
    </svg>
